<svg aria-hidden="true" style="position:absolute;width:0;height:0;overflow:hidden" xmlns="http://www.w3.org/2000/svg">
  <defs>
    <symbol id="envelope" viewBox="0 0 43 32">
      <path d="M38.667 0H4C1.794 0 0 1.794 0 4v24c0 2.206 1.794 4 4 4h34.667c2.206 0 4-1.794 4-4V4c0-2.206-1.794-4-4-4zm0 2.667c.181 0 .353.038.511.103L21.334 18.236 3.49 2.77a1.32 1.32 0 0 1 .511-.103h34.667zm0 26.666H4A1.334 1.334 0 0 1 2.667 28V5.587L20.46 21.008a1.335 1.335 0 0 0 1.748 0L40.001 5.587V28c0 .736-.598 1.333-1.333 1.333z"/>
    </symbol>
    <symbol id="phone" viewBox="0 0 20 32">
      <path d="M17 0H3C1.346 0 0 1.346 0 3v26c0 1.654 1.346 3 3 3h14c1.654 0 3-1.346 3-3V3c0-1.654-1.346-3-3-3zM3 2h14a1 1 0 0 1 1 1v21H2V3a1 1 0 0 1 1-1zm14 28H3a1 1 0 0 1-1-1v-3h16v3a1 1 0 0 1-1 1z"/>
      <path d="M4.707 27.478c.391.365.391.956 0 1.321s-1.024.365-1.414 0c-.391-.365-.391-.956 0-1.321s1.024-.365 1.414 0z"/>
    </symbol>
    <symbol id="facebook" viewBox="0 0 32 32">
      <path d="M18.422 11.142h1.328V8.829a17.317 17.317 0 0 0-1.935-.102c-1.915 0-3.226 1.204-3.226 3.418v2.037h-2.113v2.585h2.113v6.505h2.59v-6.505h2.027l.322-2.585h-2.35v-1.781c.001-.747.202-1.259 1.243-1.259z"/>
    </symbol>
    <symbol id="instagram" viewBox="0 0 32 32">
      <path d="M23.258 13.004c-.034-.773-.159-1.304-.338-1.765a3.557 3.557 0 0 0-.841-1.29 3.589 3.589 0 0 0-1.287-.838c-.463-.179-.992-.304-1.764-.338-.779-.037-1.026-.046-3.001-.046s-2.222.009-2.998.043c-.773.034-1.304.159-1.764.338a3.557 3.557 0 0 0-1.29.841 3.589 3.589 0 0 0-.838 1.287c-.179.463-.304.992-.338 1.764-.037.779-.045 1.026-.045 3.001s.008 2.222.043 2.998c.034.773.159 1.304.338 1.765.185.489.472.926.841 1.29.364.369.804.656 1.287.838.463.179.992.304 1.765.338.776.034 1.023.043 2.998.043s2.222-.008 2.998-.043c.773-.034 1.304-.159 1.764-.338a3.72 3.72 0 0 0 2.128-2.128c.179-.463.304-.992.338-1.765.034-.776.043-1.023.043-2.998s-.003-2.222-.037-2.998zm-1.309 5.938c-.031.71-.151 1.094-.25 1.35a2.409 2.409 0 0 1-1.381 1.381c-.256.099-.642.219-1.35.25-.767.034-.997.043-2.938.043s-2.174-.008-2.938-.043c-.71-.031-1.094-.15-1.35-.25a2.228 2.228 0 0 1-.835-.543 2.264 2.264 0 0 1-.543-.835c-.099-.256-.219-.642-.25-1.35-.034-.767-.043-.997-.043-2.938s.008-2.174.043-2.938c.031-.71.151-1.094.25-1.35.117-.315.301-.602.546-.835.236-.242.52-.426.835-.543.256-.099.642-.219 1.35-.25.767-.034.997-.043 2.938-.043 1.944 0 2.174.008 2.938.043.71.031 1.094.151 1.35.25.315.116.602.301.835.543.241.236.426.52.543.835.099.256.219.642.25 1.35.034.767.043.997.043 2.938s-.009 2.168-.043 2.935z"/>
      <path d="M16.027 12.265a3.737 3.737 0 0 0 0 7.472 3.737 3.737 0 0 0 0-7.472zm0 6.16a2.424 2.424 0 1 1 0-4.849 2.424 2.424 0 0 1 0 4.849zm4.757-6.308a.872.872 0 1 1-1.744 0 .872.872 0 0 1 1.744 0z"/>
    </symbol>
    <symbol id="linkedin" viewBox="0 0 32 32">
      <path d="M23.269 23.273v-.001h.004v-5.335c0-2.61-.562-4.62-3.613-4.62-1.467 0-2.451.805-2.853 1.568h-.042v-1.324h-2.893v9.711h3.012v-4.809c0-1.266.24-2.49 1.808-2.49 1.545 0 1.568 1.445 1.568 2.572v4.728h3.009zM8.967 13.562h3.016v9.711H8.967v-9.711zm1.507-4.835c-.964 0-1.747.782-1.747 1.747s.782 1.763 1.747 1.763c.964 0 1.747-.799 1.747-1.763s-.783-1.747-1.747-1.747z"/>
    </symbol>
    <symbol id="twitter" viewBox="0 0 32 32">
      <path d="M23.273 11.49a6.248 6.248 0 0 1-1.718.471 2.967 2.967 0 0 0 1.312-1.648 5.963 5.963 0 0 1-1.891.722 2.981 2.981 0 0 0-5.158 2.039c0 .236.02.464.069.68a8.439 8.439 0 0 1-6.146-3.119 2.985 2.985 0 0 0 .917 3.985 2.943 2.943 0 0 1-1.347-.367v.033a2.996 2.996 0 0 0 2.389 2.93 2.992 2.992 0 0 1-.782.098 2.64 2.64 0 0 1-.565-.051 3.01 3.01 0 0 0 2.786 2.077 5.991 5.991 0 0 1-3.697 1.272 5.59 5.59 0 0 1-.714-.041 8.393 8.393 0 0 0 4.575 1.338c5.487 0 8.487-4.545 8.487-8.485 0-.132-.005-.259-.011-.385a5.95 5.95 0 0 0 1.495-1.548z"/>
    </symbol>
    <symbol id="clocks" viewBox="0 0 72 32">
      <path fill="#f5f4fa" style="fill:var(--color4, #f5f4fa)" d="M1.067 0h69.867c.589 0 1.067.478 1.067 1.067v29.867c0 .589-.478 1.067-1.067 1.067H1.067A1.067 1.067 0 0 1 0 30.934V1.067C0 .478.478 0 1.067 0z"/>
      <path fill="#212121" style="fill:var(--color5, #212121)" d="M44.923 15.592a8.928 8.928 0 0 0-8.93-8.926 8.928 8.928 0 0 0-2.714 17.433.394.394 0 0 0 .309-.038.37.37 0 0 0 .165-.208l2.255-7.146a1.116 1.116 0 1 0-.49-2.12l-2.978-2.979a.372.372 0 0 0-.526.526l2.977 2.98a1.095 1.095 0 0 0 .313 1.347l-2.148 6.809A8.192 8.192 0 1 1 38.82 7.897a8.192 8.192 0 0 1 .502 15.169l-.232-1.093a.372.372 0 0 0-.612-.201L36.24 23.77a.372.372 0 0 0 .134.632l2.858.912a.373.373 0 0 0 .478-.431l-.228-1.073a8.9 8.9 0 0 0 5.442-8.219zm-8.928-.372a.373.373 0 1 1-.001.745.373.373 0 0 1 .001-.745zm1.226 8.671 1.274-1.136.352 1.657-1.626-.52z"/>
      <path fill="#2196f3" style="fill:var(--color6, #2196f3)" d="M35.623 8.525v.744a.371.371 0 1 0 .744 0v-.744a.373.373 0 0 0-.744 0zm-6.695 6.695a.372.372 0 1 0 0 .744h.744a.372.372 0 1 0 0-.744h-.744zm14.135.744a.372.372 0 1 0 0-.744h-.744a.373.373 0 0 0 0 .744h.744z"/>
    </symbol>
    <symbol id="computer" viewBox="0 0 72 32">
      <path fill="#f5f4fa" style="fill:var(--color4, #f5f4fa)" d="M1.067 0h69.867c.589 0 1.067.478 1.067 1.067v29.867c0 .589-.478 1.067-1.067 1.067H1.067A1.067 1.067 0 0 1 0 30.934V1.067C0 .478.478 0 1.067 0z"/>
      <path fill="#2196f3" style="fill:var(--color6, #2196f3)" d="M35.373 15.396h.622v2.799h-.622v-2.799zm2.488 1.244h.622v1.555h-.622V16.64zm-4.975.933h.622v.622h-.622v-.622zm-1.866-.311h.622v.933h-.622v-.933z"/>
      <path fill="#212121" style="fill:var(--color5, #212121)" d="M27.599 23.17h14.926a.933.933 0 0 0 .933-.933v-1.244a.933.933 0 0 0-.933-.933h-.311v-7.754l1.766-1.673a.938.938 0 1 0-.437-.445l-1.331 1.262v-.717a.933.933 0 0 0-.933-.933H28.841a.933.933 0 0 0-.933.933v9.328h-.311a.933.933 0 0 0-.933.933v1.244c0 .515.418.933.933.933zM44.391 9.488a.31.31 0 1 1 0 .621.31.31 0 0 1 0-.621zm-15.859 1.244a.31.31 0 0 1 .311-.311h12.438a.31.31 0 0 1 .311.311v1.306l-.622.591v-1.275a.31.31 0 0 0-.311-.311H29.465a.31.31 0 0 0-.311.311v7.774a.31.31 0 0 0 .311.311h11.194a.311.311 0 0 0 .311-.311v-5.643l.622-.589v7.165h-13.06v-9.328zm2.799 4.042a.933.933 0 1 0 .646 1.603l1.081.542a.31.31 0 0 0 .371-.072l2.298-2.585 2.259 1.692a.31.31 0 0 0 .4-.023l1.963-1.859v4.743H29.777v-7.152h10.572v1.552l-2.2 2.083-2.278-1.707a.311.311 0 0 0-.419.042l-2.329 2.621-.871-.435c.006-.037.01-.075.012-.113a.933.933 0 0 0-.933-.933zm.311.933a.31.31 0 1 1-.621 0 .31.31 0 0 1 .621 0zm1.865 4.975h3.11v.311a.31.31 0 0 1-.311.311h-2.488a.31.31 0 0 1-.311-.311v-.311zm-6.218.311a.31.31 0 0 1 .311-.311h5.286v.311c0 .515.418.933.933.933h2.488a.933.933 0 0 0 .933-.933v-.311h5.286a.31.31 0 0 1 .311.311v1.244a.31.31 0 0 1-.311.311H27.6a.31.31 0 0 1-.311-.311v-1.244z"/>
    </symbol>
    <symbol id="cosmonaut" viewBox="0 0 72 32">
      <path fill="#f5f4fa" style="fill:var(--color4, #f5f4fa)" d="M1.067 0h69.867c.589 0 1.067.478 1.067 1.067v29.867c0 .589-.478 1.067-1.067 1.067H1.067A1.067 1.067 0 0 1 0 30.934V1.067C0 .478.478 0 1.067 0z"/>
      <path fill="#2196f3" style="fill:var(--color6, #2196f3)" d="M45.318 9.306a.315.315 0 0 0-.251-.212l-1.114-.162-.499-1.01c-.105-.213-.453-.213-.558 0l-.499 1.01-1.115.162a.311.311 0 0 0-.172.531l.807.786-.19 1.11a.311.311 0 0 0 .451.328l.997-.524.997.524a.311.311 0 0 0 .451-.327l-.19-1.11.807-.786a.312.312 0 0 0 .079-.319zm-1.436.774a.31.31 0 0 0-.089.275l.111.65-.583-.307a.308.308 0 0 0-.29 0l-.583.307.111-.65a.309.309 0 0 0-.089-.275l-.473-.46.653-.095a.31.31 0 0 0 .234-.17l.292-.591.292.591a.31.31 0 0 0 .234.17l.653.095-.472.46zm-1.971 8.558h-.622v.622h.622v-.622zm0 1.244h-.622v.622h.622v-.622zm.622-.622h-.622v.622h.622v-.622zm-1.244 0h-.622v.622h.622v-.622zm-1.556 2.8h-.622v.622h.622v-.622zm0 1.245h-.622v.622h.622v-.622zm.623-.623h-.622v.622h.622v-.622zm-1.245 0h-.622v.622h.622v-.622zM36 20.816h-.622v.622H36v-.622zm0 1.244h-.622v.622H36v-.622zm.622-.622H36v.622h.622v-.622zm-1.244 0h-.622v.622h.622v-.622zm-5.289-11.2h-.622v.622h.622v-.622zm0 1.244h-.622v.622h.622v-.622zm.622-.622h-.622v.622h.622v-.622zm-1.244 0h-.622v.622h.622v-.622z"/>
      <path fill="#212121" style="fill:var(--color5, #212121)" d="M41.084 14.926a1.036 1.036 0 0 0-.693-.411 1.038 1.038 0 0 0-.782.205l-.73.56-1.107.827-.792-.316a4.046 4.046 0 0 0 2.4-3.687c0-2.23-1.822-4.044-4.061-4.044s-4.061 1.814-4.061 4.044c0 .808.242 1.56.653 2.192l-1.612-.014h-.003c-.005 0-.009.002-.014.003a.289.289 0 0 0-.091.018c-.007.003-.015.004-.022.008l-.011.004-1.886.931h-.001l-1.104.531a1.039 1.039 0 0 0 .545 1.927c.169 0 .336-.041.49-.123l.81-.431 1.321-.682.791-.005-3.174 3.159-.001.001-.781.778a.967.967 0 0 0 0 1.375.98.98 0 0 0 1.377 0l.767-.764 1.015-.758.525.523-1.027 1.023-.001.001-.781.778a.967.967 0 0 0 0 1.375.979.979 0 0 0 1.377 0l2.031-2.022.001-.001.589-.583-.002-.002c.004-.004.009-.005.013-.009l3.013-3.301 2.025.288a.312.312 0 0 0 .153-.019l.029-.014c.011-.006.023-.009.034-.016l1.874-1.244c.007-.005.011-.012.017-.017.007-.006.017-.008.024-.015l.742-.695c.386-.362.439-.954.124-1.378zm-13.175 2.107a.416.416 0 0 1-.326.03.417.417 0 0 1-.124-.735l.766-.369.185.539.077.226-.579.308zm2.04-1.067-.903.467-.149-.436-.107-.313 1.182-.584-.023.866zm8.808-3.862c0 .536-.128 1.041-.349 1.493l-2.439-1.108a1.086 1.086 0 0 0-.46-.81l.854-2.835a3.429 3.429 0 0 1 2.394 3.26zm-6.876 0a3.434 3.434 0 0 1 3.873-3.392l-.835 2.773-.033-.003c-.602 0-1.093.488-1.093 1.089s.49 1.089 1.093 1.089c.405 0 .755-.224.944-.551l2.253 1.024a3.436 3.436 0 0 1-2.763 1.394 3.434 3.434 0 0 1-3.438-3.422zm3.474.467a.47.47 0 0 1-.94 0c0-.258.211-.467.47-.467s.47.209.47.467zm-7.25 8.764a.354.354 0 0 1-.498 0 .348.348 0 0 1 0-.493l.561-.559.497.494-.559.557zm1.874 2.178a.354.354 0 0 1-.602-.247c0-.093.036-.18.103-.246l.562-.559.497.494-.56.557zm2.031-2.023-.001.001-1.03 1.027-.497-.494L31.511 21l.001-.001a.292.292 0 0 0 .052-.079c.004-.008.012-.015.015-.023.01-.024.011-.05.015-.075.002-.014.008-.028.008-.042 0-.021-.007-.041-.012-.062-.004-.019-.004-.038-.011-.056a.318.318 0 0 0-.053-.08c-.006-.007-.008-.016-.015-.022h-.001l-.001-.001-.937-.933c-.01-.01-.023-.014-.034-.022-.017-.013-.032-.025-.051-.034s-.036-.014-.055-.019a.304.304 0 0 0-.06-.012c-.019-.001-.037.001-.055.003a.254.254 0 0 0-.116.038c-.012.007-.025.009-.035.017l-1.035.772-.525-.523 1.399-1.392 2.543 2.502-.541.536zm3.978-4.093c-.009-.001-.017.002-.026.002a.302.302 0 0 0-.174.043.343.343 0 0 0-.049.036c-.007.006-.017.01-.023.017l-2.741 3.002-2.525-2.483 1.653-1.644a.311.311 0 0 0-.221-.531l-1.294.008.016-.938 1.811.016a4.052 4.052 0 0 0 3.652 1.153.27.27 0 0 0 .075.049l1.406.56.089.442.104.516-1.752-.249zm2.357.103-.182-.909.844-.63.552.733-1.214.806zm2.19-1.651-.489.458-.543-.721.485-.372a.425.425 0 0 1 .597.083.417.417 0 0 1-.05.553z"/>
      <path fill="#212121" style="fill:var(--color5, #212121)" d="m34.601 17.484-1.25-1.244a.31.31 0 0 0-.439 0l-1.25 1.244a.315.315 0 0 0 0 .442l1.25 1.244a.307.307 0 0 0 .438 0l1.25-1.244a.312.312 0 0 0 0-.442zm-1.469 1.026-.809-.805.809-.805.809.805-.809.805zm3.547-8.885-.15.604c.041.01 1.014.264 1.014 1.254h.622c0-1.177-.972-1.73-1.486-1.858zm1.486 2.479h-.622v.622h.622v-.622z"/>
    </symbol>
    <symbol id="radar" viewBox="0 0 72 32">
      <path fill="#f5f4fa" style="fill:var(--color4, #f5f4fa)" d="M1.067 0h69.867c.589 0 1.067.478 1.067 1.067v29.867c0 .589-.478 1.067-1.067 1.067H1.067A1.067 1.067 0 0 1 0 30.934V1.067C0 .478.478 0 1.067 0z"/>
      <path fill="#212121" style="fill:var(--color5, #212121)" d="m44.618 19.557-4.925-4.961.547-2.692c.141.055.291.084.442.085h.004a1.26 1.26 0 1 0-1.172-.837l-2.893.353-4.719-4.744a.309.309 0 0 0-.438-.002l-.882.877a.31.31 0 0 0 0 .44l.475.482a8.716 8.716 0 0 0 1.47 10.303.302.302 0 0 0 .085.057c-.02.105-.03.212-.03.319v3.609h-3.733a1.558 1.558 0 0 0-1.556 1.556v.622a.31.31 0 0 0 .311.311h14.311a.31.31 0 0 0 .311-.311v-.622a1.558 1.558 0 0 0-1.555-1.556h-3.733v-1.599a8.785 8.785 0 0 0 1.778.187 8.673 8.673 0 0 0 4.107-1.04l.477.48a.309.309 0 0 0 .438.002l.882-.877a.31.31 0 0 0 0-.44zm-4.371-9.254a.623.623 0 1 1 .439 1.063h-.002a.623.623 0 0 1-.436-1.063h-.001zm-.733 2.044-.349 1.718-.686-.69 1.035-1.029zm-.353-.526-1.12 1.113-.866-.871 1.986-.242zm1.508 11.646c.515 0 .933.418.933.933v.311H27.913V24.4c0-.515.418-.933.933-.933h11.822zm-4.355-1.245v.622h-3.111v-.622h3.111zm-3.112-.622v-2.364c0-.755.698-1.369 1.555-1.369s1.556.614 1.556 1.369V21.6h-3.111zm3.734-.989v-1.375c0-1.098-.977-1.991-2.178-1.991a2.217 2.217 0 0 0-1.914 1.042 8.09 8.09 0 0 1-1.329-9.268l10.851 10.913a8.068 8.068 0 0 1-5.43.679zm6.585-.399L31.238 7.857l.44-.439 4.629 4.655c.002 0 .003.004.006.006l7.65 7.695-.441.439z"/>
      <path fill="#2196f3" style="fill:var(--color6, #2196f3)" d="M34.761 18.489h-.003a.934.934 0 0 0-.003 1.867h.003a.934.934 0 0 0 .003-1.867zm.217 1.154a.31.31 0 1 1-.438-.441.314.314 0 0 1 .218-.091.312.312 0 0 1 .218.532h.003z"/>
    </symbol>
    <symbol id="client1" viewBox="0 0 28 32">
      <path d="m4.085 0 4.771 4.517L0 4.512v21.915h23.149v-8.379l4.766 4.512V.001H4.085zm18.854 17.517L9.411 4.71h13.528v12.807zm-4.2 5.704H3.663V8.482h1.066v13.741h14.01v.998zM7.223 29.344l-.557 1.147-.557-1.147h-.467l.813 1.529v.891h.422v-.891l.811-1.529h-.465zm.7 2.42.196-.563h.938l.198.563h.439l-.916-2.42h-.377l-.914 2.42h.437zm.665-1.906.351 1.004h-.701l.351-1.004zm2.217.946a.55.55 0 0 0-.091.307c0 .204.072.37.214.497.144.126.336.189.575.189s.445-.065.618-.194l.136.161h.469l-.356-.421c.14-.191.209-.435.209-.733h-.351a.973.973 0 0 1-.101.444l-.467-.552.165-.12a.905.905 0 0 0 .251-.253.532.532 0 0 0 .076-.279.496.496 0 0 0-.17-.384.61.61 0 0 0-.432-.156.641.641 0 0 0-.465.166.591.591 0 0 0-.173.449c0 .078.018.158.055.241.038.083.104.184.198.303-.18.129-.3.24-.361.334zm1.092.535a.616.616 0 0 1-.382.136c-.121 0-.217-.035-.289-.105s-.108-.161-.108-.273c0-.13.067-.245.2-.346l.052-.037.529.623zm-.434-1.072c-.114-.141-.171-.258-.171-.351 0-.081.023-.148.07-.201s.109-.08.188-.08c.073 0 .133.023.181.068a.21.21 0 0 1 .072.161.298.298 0 0 1-.103.234l-.052.042-.184.126zm3.94 1.314c.166-.145.262-.347.286-.605h-.419c-.022.173-.075.296-.158.371s-.207.111-.372.111a.468.468 0 0 1-.412-.206c-.093-.137-.14-.337-.14-.598v-.214c.002-.258.052-.454.15-.587a.493.493 0 0 1 .422-.201c.157 0 .277.039.357.116.082.076.133.202.153.376h.419c-.027-.265-.121-.47-.284-.615s-.378-.218-.645-.218a.978.978 0 0 0-.525.141c-.151.094-.267.228-.347.402s-.121.375-.121.603v.226c.003.223.045.418.125.587s.193.299.339.391a.949.949 0 0 0 .51.136c.276 0 .497-.072.663-.216zm2.472-.339c.082-.18.123-.388.123-.625v-.135a1.462 1.462 0 0 0-.126-.62.924.924 0 0 0-.878-.552.957.957 0 0 0-.525.145.939.939 0 0 0-.354.414 1.484 1.484 0 0 0-.125.625v.136c.001.232.043.436.126.613a.962.962 0 0 0 .356.411.98.98 0 0 0 .525.143.97.97 0 0 0 .525-.143.932.932 0 0 0 .352-.412zm-.451-1.368c.102.143.153.349.153.617v.126c0 .273-.05.48-.151.622a.493.493 0 0 1-.429.213.503.503 0 0 1-.432-.218c-.103-.145-.155-.351-.155-.617v-.14c.002-.26.054-.462.156-.603a.496.496 0 0 1 .427-.214c.186 0 .33.072.43.214z"/>
    </symbol>
    <symbol id="client3" viewBox="0 0 57 32">
      <path d="M19.417 26.187c.008 0 .017.002.025.005s.015.007.02.013l.116.111a.955.955 0 0 1-.327.211 1.299 1.299 0 0 1-.464.076 1.213 1.213 0 0 1-.436-.071.942.942 0 0 1-.329-.2.878.878 0 0 1-.212-.308 1.02 1.02 0 0 1-.074-.396.91.91 0 0 1 .305-.705 1.06 1.06 0 0 1 .349-.201c.143-.048.296-.072.449-.071.143-.003.285.019.417.064.115.043.221.104.313.178l-.097.119a.085.085 0 0 1-.025.021.066.066 0 0 1-.039.009.086.086 0 0 1-.042-.013l-.052-.032-.073-.04a.818.818 0 0 0-.229-.071 1.11 1.11 0 0 0-.173-.013.952.952 0 0 0-.323.053.683.683 0 0 0-.417.387.81.81 0 0 0-.06.313.795.795 0 0 0 .06.318.68.68 0 0 0 .402.383.867.867 0 0 0 .3.05c.059.001.119-.003.177-.01a.69.69 0 0 0 .384-.163.09.09 0 0 1 .055-.02zm3.359-.558a.974.974 0 0 1-.078.393c-.047.114-.122.218-.219.305s-.214.155-.344.2a1.42 1.42 0 0 1-.884 0 1.027 1.027 0 0 1-.342-.201.904.904 0 0 1-.221-.308 1.022 1.022 0 0 1 0-.787.94.94 0 0 1 .221-.31c.097-.084.214-.15.342-.193.284-.096.6-.096.884 0 .129.046.246.114.343.201a.914.914 0 0 1 .298.699zm-.306 0a.84.84 0 0 0-.055-.316.653.653 0 0 0-.402-.385 1.025 1.025 0 0 0-.643 0 .683.683 0 0 0-.246.149.63.63 0 0 0-.157.236.927.927 0 0 0 0 .632.643.643 0 0 0 .403.384c.207.067.435.067.643 0a.698.698 0 0 0 .246-.148.662.662 0 0 0 .156-.236.82.82 0 0 0 .055-.316zm2.597.331.03.071.033-.071a.68.68 0 0 1 .038-.07l.743-1.174c.015-.02.028-.033.042-.037a.207.207 0 0 1 .061-.006h.22v1.909h-.26v-1.463a.726.726 0 0 1 0-.066l-.747 1.19c-.009.018-.025.033-.044.043s-.041.016-.064.016h-.042c-.023 0-.045-.005-.064-.016s-.034-.026-.044-.044l-.769-1.198v1.533h-.252v-1.905h.22a.207.207 0 0 1 .061.006.087.087 0 0 1 .041.037l.759 1.175a.418.418 0 0 1 .038.068zm2.797-.095v.715h-.291v-1.906h.649c.122-.002.244.012.362.042a.724.724 0 0 1 .256.119.492.492 0 0 1 .145.187.576.576 0 0 1 .049.244.54.54 0 0 1-.211.435.752.752 0 0 1-.257.126 1.25 1.25 0 0 1-.35.044l-.352-.005zm0-.205h.352a.808.808 0 0 0 .225-.029.52.52 0 0 0 .163-.082.358.358 0 0 0 .134-.286c.003-.053-.007-.106-.029-.155s-.057-.094-.102-.13a.624.624 0 0 0-.391-.102h-.352v.786zm3.908.923h-.23a.109.109 0 0 1-.064-.018.123.123 0 0 1-.038-.044l-.198-.461h-.993l-.205.461a.107.107 0 0 1-.101.062h-.23l.872-1.909h.302l.884 1.909zm-1.439-.709h.82l-.346-.777a1.276 1.276 0 0 1-.065-.179l-.034.1a.98.98 0 0 1-.032.081l-.343.776zm2.696-1.192c.017.008.032.02.044.034l1.272 1.439v-1.482h.26v1.909h-.145a.136.136 0 0 1-.06-.011.165.165 0 0 1-.047-.035l-1.271-1.438a.726.726 0 0 1 0 .066v1.419h-.26v-1.909h.154a.15.15 0 0 1 .052.009zm3.719 1.141v.758h-.291v-.758l-.804-1.15h.26a.114.114 0 0 1 .063.016.159.159 0 0 1 .039.043l.503.742a.717.717 0 0 1 .088.169l.038-.082a.745.745 0 0 1 .049-.087l.496-.747a.18.18 0 0 1 .038-.04.098.098 0 0 1 .063-.019h.263l-.806 1.155zM24.923 21.47c.127.014.255.025.384.035 1.962-.763 3.622-2.011 4.772-3.588s1.74-3.415 1.695-5.282l-2.162-1.879c.44 1.988.234 4.043-.594 5.935s-2.245 3.547-4.094 4.779z"/>
      <path d="m24.151 21.383.058.01c1.975-1.228 3.482-2.942 4.323-4.921s.981-4.133.4-6.181l-3.08-2.676c1.246 2.2 1.747 4.661 1.446 7.098s-1.393 4.75-3.147 6.67zm10.445-6.542c-.523 2.052-1.794 3.902-3.624 5.276-.534.404-1.111.763-1.722 1.074 1.49-.38 2.859-1.053 4.003-1.966s2.03-2.042 2.592-3.3l-1.249-1.084z"/>
      <path d="m34.106 14.539-1.778-1.545c-.034 1.762-.61 3.483-1.669 4.986s-2.562 2.731-4.352 3.559h.009c.399 0 .798-.021 1.194-.062 1.673-.593 3.151-1.537 4.303-2.748s1.94-2.65 2.295-4.189zm-9.697-8.053L22.287 4.64c-1.897.637-3.528 1.756-4.68 3.212s-1.772 3.179-1.778 4.946c.007 1.952.763 3.846 2.149 5.383s3.322 2.628 5.501 3.101c1.946-2.06 3.085-4.605 3.252-7.266s-.647-5.299-2.323-7.53zm14.599 7.769c-.008-2.316-1.07-4.535-2.955-6.173s-4.439-2.561-7.105-2.567a11.3 11.3 0 0 0-3.602.582l12.99 11.286a7.647 7.647 0 0 0 .672-3.128z"/>
    </symbol>
    <symbol id="client4" viewBox="0 0 57 32">
      <path d="M12.878 11.255h-.002c-1.279 0-2.316.921-2.316 2.058v.001c0 1.137 1.037 2.058 2.316 2.058h.002c1.279 0 2.316-.921 2.316-2.058v-.001c0-1.137-1.037-2.058-2.316-2.058zm17.093-.658c-.004-1.579-.711-3.092-1.967-4.208s-2.958-1.745-4.735-1.749c-1.777.003-3.48.631-4.737 1.748s-1.964 2.63-1.968 4.209v8.706s13.405-1.327 13.406-8.704v-.001zM5.867 22.16c.003 1.098.496 2.151 1.369 2.928s2.058 1.215 3.294 1.218c1.236-.003 2.42-.441 3.294-1.218s1.366-1.829 1.37-2.927v-6.057s-9.327.924-9.327 6.056zm4.663 1.085c-.242 0-.478-.064-.678-.183s-.357-.289-.45-.487c-.092-.198-.117-.417-.069-.627s.163-.404.334-.556c.171-.152.388-.255.625-.297s.482-.02.706.062c.223.082.414.221.548.4s.206.388.206.603c.001.143-.031.284-.092.417s-.151.252-.264.353c-.114.101-.248.182-.397.236s-.308.083-.468.083v-.004zm9.426-.598h-.9v.93h-.469v-2.275h1.481v.38h-1.012v.588h.9v.378zm2.253-.156c0 .224-.04.42-.119.589a.893.893 0 0 1-.847.528c-.189 0-.357-.045-.505-.136s-.262-.22-.344-.387a1.344 1.344 0 0 1-.123-.581v-.112c0-.224.04-.421.12-.591a.895.895 0 0 1 .848-.529c.189 0 .358.046.505.137a.888.888 0 0 1 .342.392c.081.17.122.366.122.589v.102zm-.475-.103c0-.238-.043-.42-.128-.544s-.207-.186-.366-.186a.416.416 0 0 0-.364.184c-.085.122-.129.301-.13.538v.111c0 .232.043.412.128.541s.208.192.369.192a.415.415 0 0 0 .363-.184c.084-.124.127-.304.128-.541v-.111zm1.996.592a.237.237 0 0 0-.094-.203 1.203 1.203 0 0 0-.337-.15 2.418 2.418 0 0 1-.386-.156c-.258-.14-.387-.328-.387-.564 0-.123.034-.232.103-.328a.688.688 0 0 1 .298-.227c.13-.054.276-.081.438-.081.163 0 .307.03.434.089a.662.662 0 0 1 .401.614h-.469c0-.104-.033-.185-.098-.242s-.158-.087-.277-.087a.426.426 0 0 0-.267.073.225.225 0 0 0-.095.191c0 .074.037.136.111.186.075.05.185.097.33.141.267.08.461.18.583.298s.183.267.183.444a.55.55 0 0 1-.223.464c-.149.111-.349.167-.602.167-.175 0-.334-.032-.478-.095-.144-.065-.254-.153-.33-.264s-.113-.241-.113-.388h.47c0 .251.15.377.45.377a.442.442 0 0 0 .261-.067.222.222 0 0 0 .094-.191zm2.501-1.298h-.697v1.895h-.469v-1.895h-.687v-.38h1.853v.38zm1.638.909h-.9v.609h1.056v.377H26.5v-2.275h1.522v.38h-1.053v.542h.9v.367zm1.273.153h-.373v.833H28.3v-2.275h.845c.269 0 .476.06.622.18s.219.289.219.508a.697.697 0 0 1-.102.389.689.689 0 0 1-.305.247l.492.93v.022h-.503l-.427-.833zm-.373-.379h.378c.118 0 .209-.03.273-.089a.321.321 0 0 0 .097-.248.343.343 0 0 0-.092-.253c-.06-.061-.154-.092-.28-.092h-.377v.683zm2.84.41v.802h-.469v-2.275h.887c.171 0 .321.031.45.094a.703.703 0 0 1 .405.659.655.655 0 0 1-.23.528c-.152.128-.363.192-.633.192h-.411zm0-.379h.419c.124 0 .218-.029.283-.088.066-.058.098-.142.098-.25 0-.111-.033-.202-.098-.27s-.156-.104-.272-.106h-.43v.714zm2.966.195h-.9v.609h1.056v.377h-1.525v-2.275h1.522v.38h-1.053v.542h.9v.367zm2.175-.909h-.697v1.895h-.469v-1.895h-.688v-.38h1.853v.38zm1.637.909h-.9v.609h1.056v.377h-1.525v-2.275h1.522v.38h-1.053v.542h.9v.367zm1.274.153h-.373v.833h-.469v-2.275h.845c.269 0 .476.06.622.18s.219.289.219.508a.697.697 0 0 1-.102.389.689.689 0 0 1-.305.247l.492.93v.022h-.503l-.427-.833zm-.374-.379h.378c.118 0 .209-.03.273-.089a.321.321 0 0 0 .097-.248.343.343 0 0 0-.092-.253c-.06-.061-.154-.092-.28-.092h-.377v.683zm2.755.615a.237.237 0 0 0-.094-.203 1.203 1.203 0 0 0-.337-.15 2.418 2.418 0 0 1-.386-.156c-.258-.14-.388-.328-.388-.564 0-.123.034-.232.103-.328a.688.688 0 0 1 .298-.227c.13-.054.276-.081.438-.081.163 0 .307.03.434.089a.675.675 0 0 1 .295.248.646.646 0 0 1 .106.366h-.469c0-.104-.033-.185-.098-.242s-.158-.087-.277-.087a.426.426 0 0 0-.267.073.225.225 0 0 0-.095.191c0 .074.037.136.111.186.075.05.185.097.33.141.267.08.461.18.583.298s.183.267.183.444a.548.548 0 0 1-.223.464c-.149.111-.349.167-.602.167-.175 0-.334-.032-.478-.095a.773.773 0 0 1-.33-.264.678.678 0 0 1-.112-.388h.47c0 .251.15.377.45.377a.442.442 0 0 0 .261-.067.222.222 0 0 0 .094-.191z"/>
    </symbol>
    <symbol id="client2" viewBox="0 0 57 32">
      <path d="M26.727 3.165h-.073a7.542 7.542 0 0 0-.336-.012h-.243c-.212 0-.428.005-.642.016a.4.4 0 0 0-.049 0c-1.944.11-3.848.596-5.609 1.431l-.231.111V16.52l.54-.183a20.64 20.64 0 0 1 1.5-.445 18.34 18.34 0 0 1 4.317-.574v1.551c-.193.001-.38.007-.568.016h-.045a17.207 17.207 0 0 0-3.322.51 16.858 16.858 0 0 0-3.957 1.542V3.792a15.847 15.847 0 0 1 4.151-1.688c1.278-.33 2.593-.5 3.913-.504h.228c.273.007.538.019.788.038.658.046 1.31.15 1.95.311v1.527a12.05 12.05 0 0 0-1.889-.285l-.039-.003c-.132-.011-.263-.022-.386-.022zm2.688 1.561c.339.026.689.038 1.044.038a16.75 16.75 0 0 0 4.114-.528 16.958 16.958 0 0 0 3.956-1.543v14.875a15.88 15.88 0 0 1-4.153 1.688 15.948 15.948 0 0 1-3.913.503c-1 .008-1.997-.11-2.968-.35V4.438c.229.053.465.102.706.142.394.066.81.115 1.214.145zm7.57.115-.54.182c-.497.167-.997.316-1.5.449a18.23 18.23 0 0 1-4.483.575c-.352 0-.676-.01-.989-.03l-.43-.028v12.148l.37.033c.343.03.696.045 1.052.045a14.364 14.364 0 0 0 3.531-.457c.95-.238 1.874-.57 2.759-.991l.231-.111V4.843zM19.06 24.113a.788.788 0 0 0-.6-.243.895.895 0 0 0-.347.065.778.778 0 0 0-.444.449.893.893 0 0 0-.062.335v2.023a.94.94 0 0 0 .08.415.718.718 0 0 0 .48.415c.098.028.2.042.302.042a.855.855 0 0 0 .838-.851v-.226h-.529v.18a.458.458 0 0 1-.031.18.315.315 0 0 1-.077.114.38.38 0 0 1-.222.077.266.266 0 0 1-.249-.109.479.479 0 0 1-.07-.271v-1.887a.643.643 0 0 1 .065-.302c.027-.043.066-.077.112-.098s.097-.03.147-.024a.28.28 0 0 1 .236.114c.059.078.09.173.088.271v.175h.524v-.206a.953.953 0 0 0-.242-.639zm3.142-.023a.92.92 0 0 0-1.197 0 .82.82 0 0 0-.205.283.959.959 0 0 0-.077.392v1.941a.932.932 0 0 0 .077.397.791.791 0 0 0 .205.271.837.837 0 0 0 .279.171.897.897 0 0 0 .918-.171.849.849 0 0 0 .2-.271.934.934 0 0 0 .077-.397v-1.941a.943.943 0 0 0-.077-.392.867.867 0 0 0-.2-.283zm-.247 2.616a.355.355 0 0 1-.105.28.386.386 0 0 1-.498 0 .352.352 0 0 1-.105-.28v-1.941a.355.355 0 0 1 .105-.28.386.386 0 0 1 .498 0 .352.352 0 0 1 .105.28v1.941zm4.374.867v-3.674h-.509l-.668 1.945h-.009l-.673-1.945h-.503v3.674h.525v-2.235h.009l.514 1.58h.262l.518-1.58h.009v2.235h.525zm2.982-3.416a.727.727 0 0 0-.297-.201 1.168 1.168 0 0 0-.38-.057h-.78v3.674h.523v-1.435h.27a.964.964 0 0 0 .472-.1.759.759 0 0 0 .287-.281.875.875 0 0 0 .12-.32c.021-.138.03-.278.028-.418a2.107 2.107 0 0 0-.051-.525.785.785 0 0 0-.193-.338zm-.27 1.12a.45.45 0 0 1-.049.191.296.296 0 0 1-.135.129.538.538 0 0 1-.247.046h-.239v-1.249h.27a.506.506 0 0 1 .236.046.3.3 0 0 1 .123.136.537.537 0 0 1 .046.205v.244c0 .085.005.174 0 .252h-.005zm2.75-1.378h-.429l-.809 3.674h.523l.154-.789h.714l.154.789h.524l-.83-3.674zm-.483 2.384.258-1.332h.009l.256 1.332h-.524zm3.865-.171h-.009l-.791-2.213h-.503v3.674h.523v-2.209h.011l.8 2.209h.492v-3.674h-.523v2.213zm3.199-2.213-.421 1.461h-.011l-.421-1.461h-.554l.719 2.121v1.553h.524V26.02l.719-2.121h-.554zM17.6 28.61h.252v.708h.171v-.708h.251v-.145h-.675v.145zm2.121-.145-.331.853h.182l.07-.194h.34l.073.194h.186l-.339-.853h-.182zm-.027.516.116-.316.116.316h-.232zm2.124.023h.197v.11a.332.332 0 0 1-.202.072c-.034.002-.069-.004-.1-.019s-.059-.036-.081-.063a.352.352 0 0 1-.063-.222c0-.19.082-.285.246-.285.043-.004.086.007.121.032s.061.062.072.104l.169-.033c-.036-.167-.156-.251-.362-.251a.426.426 0 0 0-.298.11.413.413 0 0 0-.122.328.465.465 0 0 0 .109.32.408.408 0 0 0 .324.125.511.511 0 0 0 .362-.136v-.336h-.37v.144zm2.141-.539h-.173v.853h.598v-.145h-.425v-.708zm1.81 0h-.173v.853h.173v-.853zm1.77.57-.349-.57h-.167v.853h.161v-.557l.343.557h.171v-.853h-.158v.57zm1.601-.092h.425v-.145h-.425v-.187h.457v-.145h-.63v.853h.648v-.145h-.475v-.231zm3.88-.141h-.336v-.336h-.171v.853h.171v-.373h.336v.373h.171v-.853h-.171v.336zm1.609.141h.426v-.145h-.426v-.187h.459v-.145h-.63v.853h.646v-.145h-.475v-.231zm2.183 0c.148-.023.224-.102.224-.237a.203.203 0 0 0-.084-.189.479.479 0 0 0-.25-.05h-.362v.853h.171v-.357h.034a.231.231 0 0 1 .107.019.181.181 0 0 1 .061.062l.186.271h.205L37 29.148a.6.6 0 0 0-.189-.205zm-.172-.118h-.127v-.214h.135a.445.445 0 0 1 .174.02.128.128 0 0 1 .029.04.116.116 0 0 1-.004.097.114.114 0 0 1-.032.037.486.486 0 0 1-.174.02zm1.818.118h.425v-.145h-.425v-.187h.459v-.145h-.631v.853h.648v-.145h-.475v-.231z"/>
    </symbol>
    <symbol id="client5" viewBox="0 0 56 32">
      <path d="M14.036 23.468a.749.749 0 0 1 .192.513c.007.121-.017.243-.069.355s-.13.212-.23.293a1.37 1.37 0 0 1-.866.236H11.54v-3.248h1.492c.295-.018.587.058.827.216.096.074.173.167.223.273s.073.22.067.335a.714.714 0 0 1-.173.497.83.83 0 0 1-.454.254.888.888 0 0 1 .515.278zm-1.786-.491h.638a.644.644 0 0 0 .405-.108c.048-.04.085-.089.109-.144s.033-.114.028-.173c.005-.059-.005-.118-.029-.173s-.06-.104-.107-.145a.65.65 0 0 0-.418-.109h-.627v.852zm1.105 1.246c.051-.041.091-.092.118-.149s.037-.119.033-.181c.004-.063-.008-.125-.035-.183s-.068-.109-.12-.15a.699.699 0 0 0-.433-.117h-.669v.893h.678a.72.72 0 0 0 .428-.113zm3.731.641-.83-1.269h-.312v1.269h-.714v-3.248h1.352c.341-.022.678.077.941.276.189.176.303.409.321.655s-.06.491-.221.689a1.13 1.13 0 0 1-.645.33l.884 1.298h-.776zm-1.142-1.712h.584c.405 0 .608-.164.608-.492.004-.067-.007-.134-.033-.197s-.065-.12-.116-.168a.67.67 0 0 0-.459-.132h-.591l.007.988zm5.045 1.058h-1.423l-.251.654h-.749l1.307-3.212h.809l1.301 3.212h-.749l-.246-.654zm-.191-.492-.52-1.371-.52 1.371h1.04zm5.076 1.146h-.709l-1.589-2.209v2.209h-.707v-3.248h.707l1.589 2.221v-2.221h.709v3.248zm4.045-.777c-.147.245-.37.445-.641.573a2.248 2.248 0 0 1-.996.205H27.02v-3.248h1.262c.345-.008.687.06.996.2.271.125.495.323.641.566.146.264.222.556.222.852s-.076.588-.222.852zm-.811-.078c.202-.216.314-.491.314-.775s-.111-.559-.314-.775a1.304 1.304 0 0 0-.887-.276h-.492v2.102h.492c.324.019.643-.081.887-.276zM21.433 3.55s9.148 3.162 8.954 7.738v7.74s-9.141-3.164-8.951-7.74l-.003-7.738zm17.104 13.666a13.261 13.261 0 0 1 5.812-1.961v-2.423c-2.404.848-4.443 2.386-5.812 4.384z"/>
      <path d="M37.499 17.946c1.414-2.607 3.866-4.619 6.85-5.622V5.343S31.321 9.848 31.596 16.364v11.02s.581-.201 1.494-.579c0-.352 0-.708.042-1.065.27-3.025 1.84-5.829 4.367-7.794z"/>
      <path d="M36.26 22.04c.068-.764.221-1.52.456-2.256-1.573 1.697-2.526 3.803-2.724 6.022-.019.209-.029.419-.035.635.74-.325 1.601-.732 2.506-1.209a10.47 10.47 0 0 1-.203-3.191zm.518.039a9.974 9.974 0 0 0 .161 2.889c3.559-1.95 7.559-4.963 7.405-8.605v-.317c-2.543.261-4.922 1.278-6.772 2.897a10.104 10.104 0 0 0-.794 3.135z"/>
    </symbol>
    <symbol id="client6" viewBox="0 0 57 32">
      <path d="M32.137 14.633c-.221-.239-.332-.588-.332-1.05v-1.617c0-.457.11-.802.332-1.037s.591-.351 1.109-.35c.515 0 .882.117 1.103.35.221.235.333.58.333 1.037v1.617c0 .457-.112.807-.337 1.048s-.591.361-1.1.361c-.509 0-.886-.122-1.109-.36zm1.517-.388a.906.906 0 0 0 .105-.479v-1.98a.88.88 0 0 0-.103-.469c-.044-.057-.106-.101-.179-.129s-.152-.037-.231-.027c-.079-.009-.159 0-.231.028s-.135.072-.18.129a.853.853 0 0 0-.105.469v1.99a.888.888 0 0 0 .105.479c.051.05.114.091.185.119a.612.612 0 0 0 .635-.119v-.009zm-5.161.373a1.58 1.58 0 0 1-.323-1.061v-1.538c0-.471.107-.83.321-1.075s.581-.367 1.102-.366c.489 0 .836.104 1.042.313.224.266.333.592.308.92v.361h-.875v-.366c.003-.12-.005-.24-.025-.358a.352.352 0 0 0-.125-.213.505.505 0 0 0-.317-.083.533.533 0 0 0-.333.088.412.412 0 0 0-.145.235 1.74 1.74 0 0 0-.034.38v1.866c-.014.18.025.36.112.524.044.055.104.099.175.127s.149.038.226.029a.478.478 0 0 0 .31-.084.375.375 0 0 0 .13-.227c.02-.124.03-.249.027-.374v-.379h.875v.346c.025.342-.082.682-.303.967-.201.228-.544.343-1.047.343s-.884-.122-1.1-.375zm7.242-3.992h.942l.708 2.984.725-2.984h.917l.092 4.308h-.678l-.072-2.994-.699 2.994h-.544l-.725-3.005-.067 3.005h-.685l.085-4.308zm4.441 0h1.468c.846 0 1.268.408 1.268 1.223 0 .781-.445 1.171-1.335 1.17h-.5v1.915h-.906l.005-4.308zm1.254 1.841a.7.7 0 0 0 .498-.136.693.693 0 0 0 .13-.486 1.327 1.327 0 0 0-.044-.391c-.013-.043-.036-.083-.067-.118s-.07-.065-.114-.087a.94.94 0 0 0-.404-.069h-.352v1.287h.352zm2.788-1.841h.973l.998 4.308h-.844l-.197-.993h-.868l-.203.993h-.857l.998-4.308zm.832 2.815-.339-1.808-.339 1.808h.678zm1.946-2.815h.634l1.214 2.457v-2.457h.752v4.308h-.603l-1.221-2.565v2.565h-.777l.002-4.308zm4.361 2.665-1.009-2.659h.85l.616 1.708.578-1.708h.832l-.997 2.659v1.642h-.87v-1.642zm-21.465 3.526v.225h-.739v1.75h-.31v-1.75H28.1v-.225h1.792zm2.317 1.976h-.239a.105.105 0 0 1-.067-.019.102.102 0 0 1-.04-.045l-.214-.469h-1.026l-.214.469a.119.119 0 0 1-.033.053.112.112 0 0 1-.067.019h-.239l.906-1.976h.315l.917 1.968zm-1.5-.734h.855l-.362-.804a1.426 1.426 0 0 1-.067-.186 4.03 4.03 0 0 0-.034.105l-.033.083-.359.802zm3.062.54a1.018 1.018 0 0 0 .315-.023.961.961 0 0 0 .13-.036c.04-.014.08-.031.121-.048v-.444h-.362c-.009 0-.018-.001-.026-.003s-.016-.007-.023-.012c-.006-.004-.011-.01-.014-.016s-.005-.013-.004-.02v-.152h.703v.757a1.407 1.407 0 0 1-.609.202 2.591 2.591 0 0 1-.264.012 1.41 1.41 0 0 1-.457-.073 1.104 1.104 0 0 1-.362-.206.956.956 0 0 1-.234-.313.99.99 0 0 1-.083-.41.907.907 0 0 1 .316-.726c.103-.089.227-.159.362-.205.155-.05.32-.075.486-.074.084 0 .169.006.252.017a1.21 1.21 0 0 1 .397.128c.056.031.108.065.158.103l-.087.122c-.007.011-.017.021-.029.027s-.027.01-.041.01a.118.118 0 0 1-.056-.016 1.344 1.344 0 0 1-.089-.047.727.727 0 0 0-.121-.053 1.171 1.171 0 0 0-.167-.044 1.362 1.362 0 0 0-.23-.017 1.06 1.06 0 0 0-.35.055.704.704 0 0 0-.435.402.924.924 0 0 0 0 .659.756.756 0 0 0 .446.405c.115.034.237.047.359.039zm2.888-.032h.989v.225h-1.292v-1.976h.31l-.007 1.75zm2.019.225h-.31v-1.976h.31v1.976zm1.152-1.966a.151.151 0 0 1 .047.036l1.324 1.489a.41.41 0 0 1 0-.07v-1.472h.27v1.984h-.156a.14.14 0 0 1-.067-.011.184.184 0 0 1-.049-.038l-1.323-1.488v1.536h-.259v-1.976h.161c.017 0 .035.003.051.009zm3.923-.009v.217h-1.098v.652h.89v.21h-.89v.674h1.098v.217h-1.417v-1.971h1.417zM11.286 4.616l13.757 3.372v11.818l-13.757-3.371V4.616zm-.882-1.007V17.01l15.52 3.806V7.417L10.404 3.61z"/>
      <path d="M18.722 27.036 3.2 23.227V9.828l15.522 3.807v13.401z"/>
      <path d="m10.661 4.465 13.578 3.33-5.774 4.987L4.885 9.45l5.776-4.985zm-.257-.856L3.2 9.828l15.522 3.807 7.202-6.219-15.52-3.807zm9.191 22.673 6.329-5.465-6.329-1.553v7.018z"/>
    </symbol>
  </defs>
</svg>
